<svg width="227" height="843" viewBox="0 0 227 843" fill="none" xmlns="http://www.w3.org/2000/svg">
<path d="M108.381 272.831L30.2822 194.732H108.381V272.831Z" fill="#D5D3D1"/>
<path d="M108.381 272.831L30.2822 194.732H108.381V272.831Z" fill="#986DEB"/>
<path d="M77.8673 184.732H108.381V154.218L77.8673 184.732Z" fill="#999999"/>
<path d="M63.7251 184.732L108.381 140.076V0.175049C78.6814 39.3293 46.2304 101.939 24.651 184.732H63.7251Z" fill="#999999"/>
<path d="M118.381 140.076V0.865385C147.425 41.4102 179.051 104.493 200.604 186.089L163.822 185.516L118.381 140.076Z" fill="#999999"/>
<path d="M118.381 194.81L195.207 196.006L118.381 272.831V194.81Z" fill="#D5D3D1"/>
<path d="M118.381 194.81L195.207 196.006L118.381 272.831V194.81Z" fill="#986DEB"/>
<path d="M20.9587 199.551L108.381 286.973V422.384L2.62304 317.283C5.99394 274.688 12.4418 235.361 20.9587 199.551Z" fill="#999999"/>
<path d="M1.68663 330.45L108.381 436.482V466.777H63.206L0.212567 403.784C-0.342306 378.409 0.202935 353.951 1.68663 330.45Z" fill="#D5D3D1"/>
<path d="M1.68663 330.45L108.381 436.482V466.777H63.206L0.212567 403.784C-0.342306 378.409 0.202935 353.951 1.68663 330.45Z" fill="#986DEB"/>
<path d="M63.206 476.777H108.381V506.693L19.6902 575.06C16.5066 559.327 13.7454 543.839 11.3807 528.603L63.206 476.777Z" fill="#D5D3D1"/>
<path d="M63.206 476.777H108.381V506.693L19.6902 575.06C16.5066 559.327 13.7454 543.839 11.3807 528.603L63.206 476.777Z" fill="#986DEB"/>
<path d="M21.9518 585.943L108.381 519.32V581.623L36.1174 644.418C30.7403 624.578 26.0335 605.083 21.9518 585.943Z" fill="#999999"/>
<path d="M39.0687 655.101L108.381 594.871V694.331L65.4534 737.259C55.3641 709.275 46.6058 681.88 39.0687 655.101Z" fill="#D5D3D1"/>
<path d="M39.0687 655.101L108.381 594.871V694.331L65.4534 737.259C55.3641 709.275 46.6058 681.88 39.0687 655.101Z" fill="#986DEB"/>
<path d="M69.2386 747.616L108.381 708.473V841.953C93.6303 809.83 80.6306 778.373 69.2386 747.616Z" fill="#999999"/>
<path d="M158.552 748.644C146.916 779.393 133.578 810.755 118.381 842.682V708.473L158.552 748.644Z" fill="#999999"/>
<path d="M162.395 738.345L118.381 694.331V594.72L189.406 655.137C181.757 682.318 172.794 710.067 162.395 738.345Z" fill="#D5D3D1"/>
<path d="M162.395 738.345L118.381 694.331V594.72L189.406 655.137C181.757 682.318 172.794 710.067 162.395 738.345Z" fill="#986DEB"/>
<path d="M192.339 644.504L118.381 581.591V519.222L206.372 585.978C202.36 605.168 197.698 624.682 192.339 644.504Z" fill="#999999"/>
<path d="M118.381 476.777V506.669L208.584 575.103C211.629 559.7 214.256 544.509 216.492 529.54L163.729 476.777H118.381Z" fill="#D5D3D1"/>
<path d="M118.381 476.777V506.669L208.584 575.103C211.629 559.7 214.256 544.509 216.492 529.54L163.729 476.777H118.381Z" fill="#986DEB"/>
<path d="M222.878 476.777C221.65 490.046 220.117 503.511 218.258 517.164L177.871 476.777H222.878Z" fill="#999999"/>
<path d="M223.749 466.777H177.871L226.415 418.233C225.971 434.097 225.096 450.283 223.749 466.777Z" fill="#999999"/>
<path d="M224.463 330.391C226.198 353.975 226.999 378.464 226.702 403.805L163.729 466.777H118.381V436.473L224.463 330.391Z" fill="#D5D3D1"/>
<path d="M224.463 330.391C226.198 353.975 226.999 378.464 226.702 403.805L163.729 466.777H118.381V436.473L224.463 330.391Z" fill="#986DEB"/>
<path d="M118.381 286.973V422.331L223.399 317.314C219.66 275.466 212.997 236.583 204.374 200.981L118.381 286.973Z" fill="#999999"/>
<path d="M49.0639 476.777L9.54826 516.293C7.64266 502.921 6.04256 489.748 4.73009 476.777H49.0639Z" fill="#999999"/>
<path d="M49.0639 466.777H3.77127C2.27918 450.302 1.25116 434.161 0.649731 418.363L49.0639 466.777Z" fill="#999999"/>
<path d="M149.456 185.293L118.381 184.809V154.218L149.456 185.293Z" fill="#999999"/>
</svg>
